<svg width="145" height="192" viewBox="0 0 145 192" fill="none" xmlns="http://www.w3.org/2000/svg">
<path d="M53.979 127.397C54.2886 127.079 54.6563 126.827 55.0612 126.655C55.4661 126.482 55.9001 126.394 56.3384 126.394C56.7768 126.394 57.2108 126.482 57.6157 126.655C58.0205 126.827 58.3883 127.079 58.6978 127.397L69.6684 138.649V105.905C69.6684 104.999 70.0195 104.131 70.6444 103.49C71.2694 102.849 72.117 102.49 73.0009 102.49C73.8847 102.49 74.7323 102.849 75.3573 103.49C75.9823 104.131 76.3334 104.999 76.3334 105.905V138.649L87.3039 127.397C87.9297 126.756 88.7784 126.396 89.6633 126.396C90.5483 126.396 91.397 126.756 92.0227 127.397C92.6485 128.039 93 128.909 93 129.816C93 130.723 92.6485 131.593 92.0227 132.234L75.3603 149.313C75.0507 149.631 74.683 149.883 74.2781 150.056C73.8732 150.228 73.4392 150.316 73.0009 150.316C72.5625 150.316 72.1285 150.228 71.7236 150.056C71.3188 149.883 70.951 149.631 70.6415 149.313L53.979 132.234C53.6687 131.917 53.4225 131.54 53.2545 131.125C53.0865 130.71 53 130.265 53 129.816C53 129.366 53.0865 128.922 53.2545 128.507C53.4225 128.092 53.6687 127.715 53.979 127.397ZM53.979 63.9188C53.6687 63.6015 53.4225 63.2246 53.2545 62.8096C53.0865 62.3946 53 61.9498 53 61.5005C53 61.0512 53.0865 60.6063 53.2545 60.1913C53.4225 59.7763 53.6687 59.3994 53.979 59.0821L70.6415 42.0033C70.951 41.6852 71.3188 41.4328 71.7236 41.2606C72.1285 41.0884 72.5625 40.9998 73.0009 40.9998C73.4392 40.9998 73.8732 41.0884 74.2781 41.2606C74.683 41.4328 75.0507 41.6852 75.3603 42.0033L92.0227 59.0821C92.6485 59.7235 93 60.5934 93 61.5005C93 62.4075 92.6485 63.2774 92.0227 63.9188C91.397 64.5602 90.5483 64.9205 89.6633 64.9205C88.7784 64.9205 87.9297 64.5602 87.3039 63.9188L76.3334 52.6673L76.3334 85.4108C76.3334 86.3167 75.9823 87.1855 75.3573 87.8261C74.7323 88.4667 73.8847 88.8266 73.0009 88.8266C72.117 88.8266 71.2694 88.4667 70.6444 87.8261C70.0195 87.1855 69.6684 86.3167 69.6684 85.4108L69.6684 52.6673L58.6978 63.9188C58.3883 64.2369 58.0205 64.4893 57.6157 64.6615C57.2108 64.8337 56.7768 64.9223 56.3384 64.9223C55.9001 64.9223 55.4661 64.8337 55.0612 64.6615C54.6563 64.4893 54.2886 64.2369 53.979 63.9188Z" fill="#EEEEEE"/>
</svg>
